<svg width="1439" height="241" viewBox="0 0 1439 241" fill="none" xmlns="http://www.w3.org/2000/svg">
<g opacity="0.2">
<path d="M20.7029 69.2571L1 35.1286L20.7029 1H60.1109L79.8159 35.1286L60.1109 69.2571H20.7029Z" stroke="#0095FF" stroke-width="0.51779"/>
<path d="M79.7029 103.257L60 69.1286L79.7029 35H119.111L138.814 69.1286L119.111 103.257H79.7029Z" stroke="#0095FF" stroke-width="0.51779"/>
<path d="M138.705 69.2571L119 35.1286L138.705 1H178.113L197.816 35.1286L178.113 69.2571H138.705Z" stroke="#0095FF" stroke-width="0.51779"/>
<path d="M197.703 103.257L178 69.1286L197.703 35H237.111L256.814 69.1286L237.111 103.257H197.703Z" stroke="#0095FF" stroke-width="0.51779"/>
<path d="M256.705 69.2571L237 35.1286L256.705 1H296.113L315.816 35.1286L296.113 69.2571H256.705Z" stroke="#0095FF" stroke-width="0.51779"/>
<path d="M315.703 103.257L296 69.1286L315.703 35H355.111L374.816 69.1286L355.111 103.257H315.703Z" stroke="#0095FF" stroke-width="0.51779"/>
<path d="M374.705 69.2571L355 35.1286L374.705 1H414.113L433.816 35.1286L414.113 69.2571H374.705Z" stroke="#0095FF" stroke-width="0.51779"/>
<path d="M434.705 103.257L415 69.1286L434.705 35H474.113L493.816 69.1286L474.113 103.257H434.705Z" stroke="#0095FF" stroke-width="0.51779"/>
<path d="M493.705 69.2571L474 35.1286L493.705 1H533.113L552.816 35.1286L533.113 69.2571H493.705Z" stroke="#0095FF" stroke-width="0.51779"/>
<path d="M552.703 103.257L533 69.1286L552.703 35H592.109L611.814 69.1286L592.109 103.257H552.703Z" stroke="#0095FF" stroke-width="0.51779"/>
<path d="M611.707 69.2571L592 35.1286L611.707 1H651.113L670.816 35.1286L651.113 69.2571H611.707Z" stroke="#0095FF" stroke-width="0.51779"/>
<path d="M670.703 103.257L651 69.1286L670.703 35H710.109L729.814 69.1286L710.109 103.257H670.703Z" stroke="#0095FF" stroke-width="0.51779"/>
<path d="M729.705 69.2571L710 35.1286L729.705 1H769.111L788.816 35.1286L769.111 69.2571H729.705Z" stroke="#0095FF" stroke-width="0.51779"/>
<path d="M788.703 103.257L769 69.1286L788.703 35H828.111L847.816 69.1286L828.111 103.257H788.703Z" stroke="#0095FF" stroke-width="0.51779"/>
<path d="M847.705 69.2571L828 35.1286L847.705 1H887.111L906.816 35.1286L887.111 69.2571H847.705Z" stroke="#0095FF" stroke-width="0.51779"/>
<path d="M906.701 103.257L887 69.1286L906.701 35H946.109L965.812 69.1286L946.109 103.257H906.701Z" stroke="#0095FF" stroke-width="0.51779"/>
<path d="M965.707 69.2571L946 35.1286L965.707 1H1005.11L1024.82 35.1286L1005.11 69.2571H965.707Z" stroke="#0095FF" stroke-width="0.51779"/>
<path d="M1024.7 103.257L1005 69.1286L1024.7 35H1064.11L1083.81 69.1286L1064.11 103.257H1024.7Z" stroke="#0095FF" stroke-width="0.51779"/>
<path d="M1083.71 69.2571L1064 35.1286L1083.71 1H1123.11L1142.82 35.1286L1123.11 69.2571H1083.71Z" stroke="#0095FF" stroke-width="0.51779"/>
<path d="M1142.71 103.257L1123 69.1286L1142.71 35H1182.11L1201.81 69.1286L1182.11 103.257H1142.71Z" stroke="#0095FF" stroke-width="0.51779"/>
<path d="M1201.7 69.2571L1182 35.1286L1201.7 1H1241.11L1260.82 35.1286L1241.11 69.2571H1201.7Z" stroke="#0095FF" stroke-width="0.51779"/>
<path d="M1261.71 103.257L1242 69.1286L1261.71 35H1301.11L1320.82 69.1286L1301.11 103.257H1261.71Z" stroke="#0095FF" stroke-width="0.51779"/>
<path d="M1320.71 69.2571L1301 35.1286L1320.71 1H1360.11L1379.82 35.1286L1360.11 69.2571H1320.71Z" stroke="#0095FF" stroke-width="0.51779"/>
<path d="M1379.7 103.257L1360 69.1286L1379.7 35H1419.11L1438.81 69.1286L1419.11 103.257H1379.7Z" stroke="#0095FF" stroke-width="0.51779"/>
</g>
<g opacity="0.2">
<path d="M20.7029 137.257L1 103.129L20.7029 69H60.1109L79.8159 103.129L60.1109 137.257H20.7029Z" stroke="#0095FF" stroke-width="0.51779"/>
<path d="M79.7029 171.257L60 137.129L79.7029 103H119.111L138.814 137.129L119.111 171.257H79.7029Z" stroke="#0095FF" stroke-width="0.51779"/>
<path d="M138.705 137.257L119 103.129L138.705 69H178.113L197.816 103.129L178.113 137.257H138.705Z" stroke="#0095FF" stroke-width="0.51779"/>
<path d="M197.703 171.257L178 137.129L197.703 103H237.111L256.814 137.129L237.111 171.257H197.703Z" stroke="#0095FF" stroke-width="0.51779"/>
<path d="M256.705 137.257L237 103.129L256.705 69H296.113L315.816 103.129L296.113 137.257H256.705Z" stroke="#0095FF" stroke-width="0.51779"/>
<path d="M315.703 171.257L296 137.129L315.703 103H355.111L374.816 137.129L355.111 171.257H315.703Z" stroke="#0095FF" stroke-width="0.51779"/>
<path d="M374.705 137.257L355 103.129L374.705 69H414.113L433.816 103.129L414.113 137.257H374.705Z" stroke="#0095FF" stroke-width="0.51779"/>
<path d="M434.705 171.257L415 137.129L434.705 103H474.113L493.816 137.129L474.113 171.257H434.705Z" stroke="#0095FF" stroke-width="0.51779"/>
<path d="M493.705 137.257L474 103.129L493.705 69H533.113L552.816 103.129L533.113 137.257H493.705Z" stroke="#0095FF" stroke-width="0.51779"/>
<path d="M552.703 171.257L533 137.129L552.703 103H592.109L611.814 137.129L592.109 171.257H552.703Z" stroke="#0095FF" stroke-width="0.51779"/>
<path d="M611.707 137.257L592 103.129L611.707 69H651.113L670.816 103.129L651.113 137.257H611.707Z" stroke="#0095FF" stroke-width="0.51779"/>
<path d="M670.703 171.257L651 137.129L670.703 103H710.109L729.814 137.129L710.109 171.257H670.703Z" stroke="#0095FF" stroke-width="0.51779"/>
<path d="M729.705 137.257L710 103.129L729.705 69H769.111L788.816 103.129L769.111 137.257H729.705Z" stroke="#0095FF" stroke-width="0.51779"/>
<path d="M788.703 171.257L769 137.129L788.703 103H828.111L847.816 137.129L828.111 171.257H788.703Z" stroke="#0095FF" stroke-width="0.51779"/>
<path d="M847.705 137.257L828 103.129L847.705 69H887.111L906.816 103.129L887.111 137.257H847.705Z" stroke="#0095FF" stroke-width="0.51779"/>
<path d="M906.701 171.257L887 137.129L906.701 103H946.109L965.812 137.129L946.109 171.257H906.701Z" stroke="#0095FF" stroke-width="0.51779"/>
<path d="M965.707 137.257L946 103.129L965.707 69H1005.11L1024.82 103.129L1005.11 137.257H965.707Z" stroke="#0095FF" stroke-width="0.51779"/>
<path d="M1024.7 171.257L1005 137.129L1024.7 103H1064.11L1083.81 137.129L1064.11 171.257H1024.7Z" stroke="#0095FF" stroke-width="0.51779"/>
<path d="M1083.71 137.257L1064 103.129L1083.71 69H1123.11L1142.82 103.129L1123.11 137.257H1083.71Z" stroke="#0095FF" stroke-width="0.51779"/>
<path d="M1142.71 171.257L1123 137.129L1142.71 103H1182.11L1201.81 137.129L1182.11 171.257H1142.71Z" stroke="#0095FF" stroke-width="0.51779"/>
<path d="M1201.7 137.257L1182 103.129L1201.7 69H1241.11L1260.82 103.129L1241.11 137.257H1201.7Z" stroke="#0095FF" stroke-width="0.51779"/>
<path d="M1261.71 171.257L1242 137.129L1261.71 103H1301.11L1320.82 137.129L1301.11 171.257H1261.71Z" stroke="#0095FF" stroke-width="0.51779"/>
<path d="M1320.71 137.257L1301 103.129L1320.71 69H1360.11L1379.82 103.129L1360.11 137.257H1320.71Z" stroke="#0095FF" stroke-width="0.51779"/>
<path d="M1379.7 171.257L1360 137.129L1379.7 103H1419.11L1438.81 137.129L1419.11 171.257H1379.7Z" stroke="#0095FF" stroke-width="0.51779"/>
</g>
<g opacity="0.2">
<path d="M20.7029 206.257L1 172.129L20.7029 138H60.1109L79.8159 172.129L60.1109 206.257H20.7029Z" stroke="#0095FF" stroke-width="0.51779"/>
<path d="M79.7029 240.257L60 206.129L79.7029 172H119.111L138.814 206.129L119.111 240.257H79.7029Z" stroke="#0095FF" stroke-width="0.51779"/>
<path d="M138.705 206.257L119 172.129L138.705 138H178.113L197.816 172.129L178.113 206.257H138.705Z" stroke="#0095FF" stroke-width="0.51779"/>
<path d="M197.703 240.257L178 206.129L197.703 172H237.111L256.814 206.129L237.111 240.257H197.703Z" stroke="#0095FF" stroke-width="0.51779"/>
<path d="M256.705 206.257L237 172.129L256.705 138H296.113L315.816 172.129L296.113 206.257H256.705Z" stroke="#0095FF" stroke-width="0.51779"/>
<path d="M315.703 240.257L296 206.129L315.703 172H355.111L374.816 206.129L355.111 240.257H315.703Z" stroke="#0095FF" stroke-width="0.51779"/>
<path d="M374.705 206.257L355 172.129L374.705 138H414.113L433.816 172.129L414.113 206.257H374.705Z" stroke="#0095FF" stroke-width="0.51779"/>
<path d="M434.705 240.257L415 206.129L434.705 172H474.113L493.816 206.129L474.113 240.257H434.705Z" stroke="#0095FF" stroke-width="0.51779"/>
<path d="M493.705 206.257L474 172.129L493.705 138H533.113L552.816 172.129L533.113 206.257H493.705Z" stroke="#0095FF" stroke-width="0.51779"/>
<path d="M552.703 240.257L533 206.129L552.703 172H592.109L611.814 206.129L592.109 240.257H552.703Z" stroke="#0095FF" stroke-width="0.51779"/>
<path d="M611.707 206.257L592 172.129L611.707 138H651.113L670.816 172.129L651.113 206.257H611.707Z" stroke="#0095FF" stroke-width="0.51779"/>
<path d="M670.703 240.257L651 206.129L670.703 172H710.109L729.814 206.129L710.109 240.257H670.703Z" stroke="#0095FF" stroke-width="0.51779"/>
<path d="M729.705 206.257L710 172.129L729.705 138H769.111L788.816 172.129L769.111 206.257H729.705Z" stroke="#0095FF" stroke-width="0.51779"/>
<path d="M788.703 240.257L769 206.129L788.703 172H828.111L847.816 206.129L828.111 240.257H788.703Z" stroke="#0095FF" stroke-width="0.51779"/>
<path d="M847.705 206.257L828 172.129L847.705 138H887.111L906.816 172.129L887.111 206.257H847.705Z" stroke="#0095FF" stroke-width="0.51779"/>
<path d="M906.701 240.257L887 206.129L906.701 172H946.109L965.812 206.129L946.109 240.257H906.701Z" stroke="#0095FF" stroke-width="0.51779"/>
<path d="M965.707 206.257L946 172.129L965.707 138H1005.11L1024.82 172.129L1005.11 206.257H965.707Z" stroke="#0095FF" stroke-width="0.51779"/>
<path d="M1024.7 240.257L1005 206.129L1024.7 172H1064.11L1083.81 206.129L1064.11 240.257H1024.7Z" stroke="#0095FF" stroke-width="0.51779"/>
<path d="M1083.71 206.257L1064 172.129L1083.71 138H1123.11L1142.82 172.129L1123.11 206.257H1083.71Z" stroke="#0095FF" stroke-width="0.51779"/>
<path d="M1142.71 240.257L1123 206.129L1142.71 172H1182.11L1201.81 206.129L1182.11 240.257H1142.71Z" stroke="#0095FF" stroke-width="0.51779"/>
<path d="M1201.7 206.257L1182 172.129L1201.7 138H1241.11L1260.82 172.129L1241.11 206.257H1201.7Z" stroke="#0095FF" stroke-width="0.51779"/>
<path d="M1261.71 240.257L1242 206.129L1261.71 172H1301.11L1320.82 206.129L1301.11 240.257H1261.71Z" stroke="#0095FF" stroke-width="0.51779"/>
<path d="M1320.71 206.257L1301 172.129L1320.71 138H1360.11L1379.82 172.129L1360.11 206.257H1320.71Z" stroke="#0095FF" stroke-width="0.51779"/>
<path d="M1379.7 240.257L1360 206.129L1379.7 172H1419.11L1438.81 206.129L1419.11 240.257H1379.7Z" stroke="#0095FF" stroke-width="0.51779"/>
</g>
</svg>
