<?xml version="1.0" encoding="utf-8"?>
<svg viewBox="-151.292 -61.546 509.799 537.66" xmlns="http://www.w3.org/2000/svg">
  <path d="M 73.236 99 L 52.152 62.483 L 73.236 25.966 L 115.402 25.966 L 136.483 62.483 L 115.402 99 L 73.236 99 Z" stroke="#FD7000" stroke-width="0.51779" style="fill: rgba(0, 0, 0, 0); transform-box: fill-box; transform-origin: -69.1745% -19.9906%;"/>
  <path d="M 136.753 135.64 L 115.669 99.123 L 136.753 62.606 L 178.919 62.606 L 200 99.123 L 178.919 135.64 L 136.753 135.64 Z" stroke="#FD7000" stroke-width="0.51779" style="fill: rgba(0, 0, 0, 0); transform-origin: 57.333px 48.006px;"/>
  <path d="M 200.305 172.034 L 179.221 135.517 L 200.305 99 L 242.471 99 L 263.552 135.517 L 242.471 172.034 L 200.305 172.034 Z" stroke="#FD7000" stroke-width="0.51779" style="fill: rgba(0, 0, 0, 0); transform-origin: 120.885px 84.4px;"/>
  <path d="M 200.305 318.102 L 179.221 281.585 L 200.305 245.068 L 242.471 245.068 L 263.552 281.585 L 242.471 318.102 L 200.305 318.102 Z" stroke="#FD7000" stroke-width="0.51779" style="fill: rgba(0, 0, 0, 0); transform-origin: 120.885px 230.468px;"/>
  <path d="M 199.415 245.068 L 178.331 208.551 L 199.415 172.034 L 241.581 172.034 L 262.662 208.551 L 241.581 245.068 L 199.415 245.068 Z" stroke="#FD7000" stroke-width="0.51779" style="fill: rgba(0, 0, 0, 0); transform-origin: 119.995px 157.434px;"/>
  <path d="M 137.753 354.679 L 116.669 318.162 L 137.753 281.645 L 179.919 281.645 L 201 318.162 L 179.919 354.679 L 137.753 354.679 Z" stroke="#FD7000" stroke-width="0.51779" style="fill: rgba(0, 0, 0, 0); transform-origin: 58.333px 267.045px;"/>
  <path d="M 74.236 391 L 53.152 354.483 L 74.236 317.966 L 116.402 317.966 L 137.483 354.483 L 116.402 391 L 74.236 391 Z" stroke="#FD7000" stroke-width="0.51779" style="fill: rgba(0, 0, 0, 0); transform-origin: -5.184px 303.366px;"/>
  <path d="M 136.753 62.606 L 115.669 26.089 L 136.753 -10.428 L 178.919 -10.428 L 200 26.089 L 178.919 62.606 L 136.753 62.606 Z" stroke="#FD7000" stroke-width="0.51779" style="fill: rgba(0, 0, 0, 0); transform-origin: 57.333px -25.028px;"/>
  <path d="M 200.305 99 L 179.221 62.483 L 200.305 25.966 L 242.471 25.966 L 263.552 62.483 L 242.471 99 L 200.305 99 Z" stroke="#FD7000" stroke-width="0.51779" style="fill: rgba(0, 0, 0, 0); transform-origin: 120.885px 11.366px;"/>
  <path d="M 263.285 135.64 L 242.201 99.123 L 263.285 62.606 L 305.451 62.606 L 326.532 99.123 L 305.451 135.64 L 263.285 135.64 Z" stroke="#FD7000" stroke-width="0.51779" style="fill: rgba(0, 0, 0, 0); transform-origin: 183.865px 48.006px;"/>
  <path d="M 263.285 208.674 L 242.201 172.157 L 263.285 135.64 L 305.451 135.64 L 326.532 172.157 L 305.451 208.674 L 263.285 208.674 Z" stroke="#FD7000" stroke-width="0.51779" style="fill: rgba(0, 0, 0, 0); transform-origin: 183.865px 121.04px;"/>
  <path d="M 263.285 281.708 L 242.201 245.191 L 263.285 208.674 L 305.451 208.674 L 326.532 245.191 L 305.451 281.708 L 263.285 281.708 Z" stroke="#FD7000" stroke-width="0.51779" style="fill: rgba(0, 0, 0, 0); transform-origin: 183.865px 194.074px;"/>
  <path d="M 264.271 354.129 L 243.187 317.612 L 264.271 281.095 L 306.437 281.095 L 327.518 317.612 L 306.437 354.129 L 264.271 354.129 Z" stroke="#FD7000" stroke-width="0.51779" style="fill: rgba(0, 0, 0, 0); transform-origin: 184.851px 266.495px;"/>
  <path d="M 200.539 391.199 L 179.455 354.682 L 200.539 318.165 L 242.705 318.165 L 263.786 354.682 L 242.705 391.199 L 200.539 391.199 Z" stroke="#FD7000" stroke-width="0.51779" style="fill: rgba(0, 0, 0, 0); transform-origin: 121.119px 303.565px;"/>
  <path d="M 137.736 428.151 L 116.652 391.634 L 137.736 355.117 L 179.902 355.117 L 200.983 391.634 L 179.902 428.151 L 137.736 428.151 Z" stroke="#FD7000" stroke-width="0.51779" style="fill: rgba(0, 0, 0, 0); transform-origin: 58.316px 340.517px;"/>
  <path d="M 9.289 135.64 L -11.795 99.123 L 9.289 62.606 L 51.455 62.606 L 72.536 99.123 L 51.455 135.64 L 9.289 135.64 Z" stroke="#FD7000" stroke-width="0.51779" style="fill: rgba(0, 0, 0, 0); transform-origin: -70.131px 48.006px;"/>
  <path d="M 74.236 25.966 L 53.152 -10.551 L 74.236 -47.068 L 116.402 -47.068 L 137.483 -10.551 L 116.402 25.966 L 74.236 25.966 Z" stroke="#FD7000" stroke-width="0.51779" style="fill: rgba(0, 0, 0, 0); transform-origin: -5.184px -61.668px;"/>
  <path d="M 9.289 62.606 L -11.795 26.089 L 9.289 -10.428 L 51.455 -10.428 L 72.536 26.089 L 51.455 62.606 L 9.289 62.606 Z" stroke="#FD7000" stroke-width="0.51779" style="fill: rgba(0, 0, 0, 0); transform-origin: -70.131px -25.028px;"/>
  <path d="M -54.219 100 L -75.303 63.483 L -54.219 26.966 L -12.053 26.966 L 9.028 63.483 L -12.053 100 L -54.219 100 Z" stroke="#FD7000" stroke-width="0.51779" style="fill: rgba(0, 0, 0, 0); transform-origin: -133.639px 12.366px;"/>
  <path d="M -54.219 172.034 L -75.303 135.517 L -54.219 99 L -12.053 99 L 9.028 135.517 L -12.053 172.034 L -54.219 172.034 Z" stroke="#FD7000" stroke-width="0.51779" style="fill: rgba(0, 0, 0, 0); transform-origin: -133.639px 84.4px;"/>
  <path d="M -118.725 135.64 L -139.809 99.123 L -118.725 62.606 L -76.559 62.606 L -55.478 99.123 L -76.559 135.64 L -118.725 135.64 Z" stroke="#FD7000" stroke-width="0.51779" style="fill: rgba(0, 0, 0, 0); transform-origin: -198.145px 48.006px;"/>
  <path d="M -54.219 245.068 L -75.303 208.551 L -54.219 172.034 L -12.053 172.034 L 9.028 208.551 L -12.053 245.068 L -54.219 245.068 Z" stroke="#FD7000" stroke-width="0.51779" style="fill: rgba(0, 0, 0, 0); transform-origin: -133.639px 157.434px;"/>
  <path d="M -118.725 208.674 L -139.809 172.157 L -118.725 135.64 L -76.559 135.64 L -55.478 172.157 L -76.559 208.674 L -118.725 208.674 Z" stroke="#FD7000" stroke-width="0.51779" style="fill: rgba(0, 0, 0, 0); transform-origin: -198.145px 121.04px;"/>
  <path d="M -118.725 281.645 L -139.809 245.128 L -118.725 208.611 L -76.559 208.611 L -55.478 245.128 L -76.559 281.645 L -118.725 281.645 Z" stroke="#FD7000" stroke-width="0.51779" style="fill: rgba(0, 0, 0, 0); transform-origin: -198.145px 194.011px;"/>
  <path d="M -54.219 318.165 L -75.303 281.648 L -54.219 245.131 L -12.053 245.131 L 9.028 281.648 L -12.053 318.165 L -54.219 318.165 Z" stroke="#FD7000" stroke-width="0.51779" style="fill: rgba(0, 0, 0, 0); transform-origin: -133.639px 230.531px;"/>
  <path d="M -118.725 355.117 L -139.809 318.6 L -118.725 282.083 L -76.559 282.083 L -55.478 318.6 L -76.559 355.117 L -118.725 355.117 Z" stroke="#FD7000" stroke-width="0.51779" style="fill: rgba(0, 0, 0, 0); transform-origin: -198.145px 267.483px;"/>
  <path d="M 9.289 355.117 L -11.795 318.6 L 9.289 282.083 L 51.455 282.083 L 72.536 318.6 L 51.455 355.117 L 9.289 355.117 Z" stroke="#FD7000" stroke-width="0.51779" style="fill: rgba(0, 0, 0, 0); transform-origin: -70.131px 267.483px;"/>
  <path d="M -54.219 391.199 L -75.303 354.682 L -54.219 318.165 L -12.053 318.165 L 9.028 354.682 L -12.053 391.199 L -54.219 391.199 Z" stroke="#FD7000" stroke-width="0.51779" style="fill: rgba(0, 0, 0, 0); transform-origin: -133.639px 303.565px;"/>
  <path d="M 9.289 428.151 L -11.795 391.634 L 9.289 355.117 L 51.455 355.117 L 72.536 391.634 L 51.455 428.151 L 9.289 428.151 Z" stroke="#FD7000" stroke-width="0.51779" style="fill: rgba(0, 0, 0, 0); transform-origin: -70.131px 340.517px;"/>
  <path d="M 73.236 464.034 L 52.152 427.517 L 73.236 391 L 115.402 391 L 136.483 427.517 L 115.402 464.034 L 73.236 464.034 Z" stroke="#FD7000" stroke-width="0.51779" style="fill: rgba(0, 0, 0, 0); transform-origin: -6.184px 376.4px;"/>
</svg>