<?xml version="1.0" encoding="utf-8"?>
<svg viewBox="21.182 194.059 444.138 87.193" xmlns="http://www.w3.org/2000/svg" xmlns:bx="https://boxy-svg.com">
  <defs>
    <bx:grid x="-98.403" y="-53.586" width="23.917" height="23.917"/>
    <bx:grid x="0" y="0" width="20.295" height="20.295"/>
    <linearGradient id="gradient-1" x1="514" y1="0.543457" x2="514" y2="84.902" gradientUnits="userSpaceOnUse" gradientTransform="matrix(0.416847, 0, 0, 0.416847, 32.112038, 215.372894)">
      <stop stop-color="#FD7000"/>
      <stop offset="1" stop-color="#0095FF"/>
    </linearGradient>
  </defs>
  <path d="M 32.529 250.764 C 32.529 250.764 94.206 215.486 137.403 215.6 C 180.262 215.713 198.508 250.764 241.37 250.764 C 299.107 250.764 328.659 215.6 387.265 215.6 C 421.502 215.6 460.213 250.764 460.213 250.764" stroke="url(#gradient-1)" style="fill: rgba(255, 255, 255, 0);"/>
  <path d="M 33.917 252.764 C 33.917 255.525 31.678 257.764 28.917 257.764 C 26.156 257.764 23.917 255.525 23.917 252.764 C 23.917 250.003 26.156 247.764 28.917 247.764 C 31.678 247.764 33.917 250.003 33.917 252.764 Z" fill="#0095FF" style=""/>
  <circle cx="130.123" cy="215.364" r="5" fill="#FD7000" style=""/>
  <path d="M 249.042 250.428 C 249.042 253.19 246.804 255.428 244.042 255.428 C 241.28 255.428 239.042 253.19 239.042 250.428 C 239.042 247.666 241.28 245.428 244.042 245.428 C 246.804 245.428 249.042 247.666 249.042 250.428 Z" fill="#0095FF"/>
  <circle cx="376.413" cy="216.364" r="5" fill="#FD7000"/>
  <path d="M 462.08 248.253 C 462.08 251.015 459.842 253.253 457.08 253.253 C 454.318 253.253 452.08 251.015 452.08 248.253 C 452.08 245.491 454.318 243.253 457.08 243.253 C 459.842 243.253 462.08 245.491 462.08 248.253 Z" fill="#0095FF"/>
  <text style="fill: rgb(253, 112, 0); font-family: Arial, sans-serif; font-size: 7px; font-weight: 700; white-space: pre;" x="115.342" y="202.141">Contract</text>
  <text style="fill: rgb(0, 149, 255); font-family: Arial, sans-serif; font-size: 8px; font-weight: 700; white-space: pre;" x="218.821" y="234.363">Content Upload</text>
  <text style="fill: rgb(253, 112, 0); font-family: Arial, sans-serif; font-size: 8px; font-weight: 700; white-space: pre;" x="359.053" y="201.354">Payment</text>
  <text style="fill: rgb(255, 255, 255); font-family: Arial, sans-serif; font-size: 8px; text-anchor: middle; white-space: pre;" transform="matrix(0.800942, 0, 0, 0.800942, 60.716625, 164.720337)"><tspan x="91.351" y="86.746">Influencer and brand come</tspan><tspan x="91.35099792480469" dy="1em">​</tspan><tspan>together and agree on</tspan><tspan x="91.35099792480469" dy="1em">​</tspan><tspan>CPM(Cost Per Mile).</tspan></text>
  <text style="fill: rgb(255, 255, 255); font-family: Arial, sans-serif; font-size: 6px; text-anchor: middle; white-space: pre;" transform="matrix(1, 0, 0, 1, 154.948364, 180.797485)" x="91.35099792480469" y="86.74600219726562"><tspan>Influencer uploads their content which <tspan x="91.35099792480469" dy="1em">​</tspan>is then monitered by Satik's on-chain<tspan x="91.35099792480469" dy="1em">​</tspan>programs.</tspan><tspan x="91.35099792480469" dy="1em">​</tspan><tspan> </tspan></text>
  <text style="fill: rgb(255, 255, 255); font-family: Arial, sans-serif; font-size: 6px; text-anchor: middle; white-space: pre;" transform="matrix(1, 0, 0, 1, 288.277374, 150.056488)" x="91.35099792480469" y="86.74600219726562"><tspan>Content's performance is checked <tspan x="91.35099792480469" dy="1em">​</tspan>on regular basis by on-chain prgrams<tspan x="91.35099792480469" dy="1em">​</tspan> and influencer is </tspan>paid accordingly.<tspan> <tspan x="91.35099792480469" dy="1em">​</tspan></tspan><tspan x="91.35099792480469" dy="1em">​</tspan></text>
  <text style="fill: rgb(255, 255, 255); font-family: Arial, sans-serif; font-size: 6px; white-space: pre;" x="22.298" y="266.091">Start</text>
  <text style="fill: rgb(255, 255, 255); font-family: Arial, sans-serif; font-size: 6px; white-space: pre;" x="451.589" y="261.97">End</text>
</svg>