<?xml version="1.0" encoding="utf-8"?>
<svg viewBox="-132.572 -169.548 784.082 538.78" xmlns="http://www.w3.org/2000/svg">
  <defs>
    <linearGradient id="paint0_linear_174_4403" x1="8.52558" y1="90.0973" x2="88.9933" y2="-3.01622" gradientUnits="userSpaceOnUse" gradientTransform="matrix(0.633902, 0, 0, 0.723627, 140.725563, 172.752075)">
      <stop offset="0.08" stop-color="#9945FF"/>
      <stop offset="0.3" stop-color="#8752F3"/>
      <stop offset="0.5" stop-color="#5497D5"/>
      <stop offset="0.6" stop-color="#43B4CA"/>
      <stop offset="0.72" stop-color="#28E0B9"/>
      <stop offset="0.97" stop-color="#19FB9B"/>
    </linearGradient>
  </defs>
  <title>nakamoto</title>
  <rect x="-26.753" y="-43.654" width="2" height="107" fill="#3f3d56">
    <animate attributeName="fill" values="rgb(7.8431% 0% 100% / 0.5294);#1400ff" begin="5.23s" dur="1.45s" fill="freeze" keyTimes="0; 1" repeatCount="indefinite"/>
  </rect>
  <rect x="-26.753" y="95.197" width="2" height="94.149" fill="#3f3d56">
    <animate attributeName="fill" values="rgb(7.8431% 0% 100% / 0.5569);#1400ff" begin="2.25s" dur="1.55s" fill="freeze" keyTimes="0; 1" repeatCount="indefinite"/>
  </rect>
  <rect x="-9.207" y="204.346" width="132.454" height="2" style="" fill="#3f3d56">
    <animate attributeName="fill" values="#2b37c695;rgb(35.294% 29.804% 96.471%)" begin="0.11s" dur="1s" fill="freeze" keyTimes="0; 1" repeatCount="indefinite"/>
  </rect>
  <rect x="-95.753" y="231.346" width="2" height="85" fill="#3f3d56">
    <animate attributeName="fill" values="rgb(7.8431% 0% 100% / 0.549);#1400ff" begin="6.06s" dur="1.22s" fill="freeze" keyTimes="0; 1" repeatCount="indefinite"/>
  </rect>
  <rect x="-77.753" y="331.346" width="235" height="2" fill="#3f3d56">
    <animate attributeName="fill" values="rgb(7.8431% 0% 100% / 0.5608);#1400ff" begin="2.39s" dur="1.77s" fill="freeze" keyTimes="0; 1" repeatCount="indefinite"/>
  </rect>
  <path fill="none" stroke="#3f3d56" stroke-miterlimit="10" stroke-width="2"/>
  <path fill="none" stroke="#3f3d56" stroke-miterlimit="10" stroke-width="2"/>
  <rect x="351.247" y="-111.654" width="2" height="101" fill="#3f3d56">
    <animate attributeName="fill" values="rgb(7.8431% 0% 100% / 0.5176);#1400ff" begin="6.46s" dur="1.67s" fill="freeze" keyTimes="0; 1" repeatCount="indefinite"/>
  </rect>
  <rect x="189.213" y="5.346" width="147.034" height="2" fill="#3f3d56">
    <animate attributeName="fill" values="rgb(7.8431% 0% 100% / 0.549);#1400ff" begin="3.1s" dur="1.58s" fill="freeze" keyTimes="0; 1" repeatCount="indefinite"/>
  </rect>
  <rect x="172.247" y="21.346" width="2" height="135" fill="#3f3d56">
    <animate attributeName="fill" values="rgb(7.8431% 0% 100% / 0.4824);#1400ff" begin="0s" dur="1.48s" fill="freeze" keyTimes="0; 1" repeatCount="indefinite"/>
  </rect>
  <path d="M -25.753 96.346 C -38.839 96.346 -47.019 82.18 -40.475 70.846 C -33.932 59.513 -17.574 59.513 -11.03 70.846 C -9.538 73.431 -8.753 76.362 -8.753 79.346 C -8.763 88.731 -16.368 96.336 -25.753 96.346 Z M -25.753 64.346 C -37.3 64.346 -44.517 76.846 -38.743 86.846 C -32.97 96.846 -18.536 96.846 -12.762 86.846 C -11.446 84.566 -10.753 81.979 -10.753 79.346 C -10.762 71.066 -17.472 64.356 -25.753 64.346 Z" fill="#3f3d56">
    <animate attributeName="fill" values="rgb(7.8431% 0% 100% / 0.5725);#1400ff" begin="3.8s" dur="1.43s" fill="freeze" keyTimes="0; 1" repeatCount="indefinite"/>
  </path>
  <path d="M -93.753 349.346 C -106.839 349.346 -115.019 335.18 -108.475 323.846 C -101.932 312.513 -85.574 312.513 -79.03 323.846 C -77.538 326.431 -76.753 329.362 -76.753 332.346 C -76.763 341.731 -84.368 349.336 -93.753 349.346 Z M -93.753 317.346 C -105.3 317.346 -112.517 329.846 -106.743 339.846 C -100.97 349.846 -86.536 349.846 -80.762 339.846 C -79.446 337.566 -78.753 334.979 -78.753 332.346 C -78.762 324.066 -85.472 317.356 -93.753 317.346 Z" fill="#3f3d56">
    <animate attributeName="fill" values="rgb(7.8431% 0% 100% / 0.5373);#1400ff" begin="4.16s" dur="1.82s" fill="freeze" keyTimes="0; 1" repeatCount="indefinite"/>
  </path>
  <circle cx="-24.753" cy="205.346" r="16" fill="#6c63ff">
    <animate attributeName="fill" values="#6c63ff5c;rgb(42.353% 38.824% 100%)" begin="1.27s" dur="1s" fill="freeze" keyTimes="0; 1" repeatCount="indefinite"/>
  </circle>
  <rect x="388.247" y="78.346" width="166" height="2" fill="#3f3d56">
    <animate attributeName="fill" values="rgb(7.8431% 0% 100% / 0.6);#1400ff" begin="4.48s" dur="1.32s" fill="freeze" keyTimes="0; 1" repeatCount="indefinite"/>
  </rect>
  <rect x="371.247" y="95.197" width="2" height="94.149" fill="#3f3d56">
    <animate attributeName="fill" values="#2f24b085;rgb(7.8431% 0% 98.039%)" begin="2.35s" dur="1s" fill="freeze" keyTimes="0; 1"/>
  </rect>
  <rect x="222.247" y="204.346" width="133" height="2" fill="#3f3d56">
    <animate attributeName="fill" values="#164bd565;rgb(9.4118% 4.3137% 96.078%)" dur="1s" fill="freeze" keyTimes="0; 1" repeatCount="indefinite"/>
  </rect>
  <rect x="456.247" y="213.346" width="138" height="2" fill="#3f3d56">
    <animate attributeName="fill" values="rgb(7.8431% 0% 100% / 0.5725);#1400ff" begin="8.21s" dur="1.2s" fill="freeze" keyTimes="0; 1" repeatCount="indefinite"/>
  </rect>
  <rect x="440.247" y="231.346" width="2" height="85" fill="#3f3d56">
    <animate attributeName="fill" values="rgb(7.8431% 0% 100% / 0.5608);#1400ff" begin="5.21s" dur="1.47s" fill="freeze" keyTimes="0; 1" repeatCount="indefinite"/>
  </rect>
  <rect x="189.247" y="331.346" width="235" height="2" fill="#3f3d56">
    <animate attributeName="fill" values="rgb(7.8431% 0% 100% / 0.5176);#1400ff" begin="2.42s" dur="1.77s" fill="freeze" keyTimes="0; 1" repeatCount="indefinite"/>
  </rect>
  <rect x="172.247" y="254.346" width="2" height="62" fill="#3f3d56">
    <animate attributeName="fill" values="rgb(7.8431% 0% 100% / 0.5765);#1400ff" dur="1.1s" fill="freeze" keyTimes="0; 1" repeatCount="indefinite"/>
  </rect>
  <circle cx="372.247" cy="79.346" r="16" fill="#6c63ff">
    <animate attributeName="fill" values="#5f4cf637;rgb(42.353% 38.824% 100%)" dur="1s" fill="freeze" keyTimes="0; 1" begin="3.46s" repeatCount="indefinite"/>
  </circle>
  <path d="M 352.247 22.346 C 339.161 22.346 330.981 8.18 337.525 -3.154 C 344.068 -14.487 360.426 -14.487 366.97 -3.154 C 368.462 -0.569 369.247 2.362 369.247 5.346 C 369.237 14.731 361.632 22.336 352.247 22.346 Z M 352.247 -9.654 C 340.7 -9.654 333.483 2.846 339.257 12.846 C 345.03 22.846 359.464 22.846 365.238 12.846 C 366.554 10.566 367.247 7.979 367.247 5.346 C 367.238 -2.934 360.528 -9.644 352.247 -9.654 L 352.247 -9.654 Z" style="fill: rgb(42, 30, 186);">
    <animate attributeName="fill" values="rgb(7.8431% 0% 100% / 0.5725);#1400ff" begin="4.68s" dur="1.78s" fill="freeze" keyTimes="0; 1" repeatCount="indefinite"/>
  </path>
  <path d="M 173.247 22.346 C 160.161 22.346 151.981 8.18 158.525 -3.154 C 165.068 -14.487 181.426 -14.487 187.97 -3.154 C 189.462 -0.569 190.247 2.362 190.247 5.346 C 190.237 14.731 182.632 22.336 173.247 22.346 Z M 173.247 -9.654 C 161.7 -9.654 154.483 2.846 160.257 12.846 C 166.03 22.846 180.464 22.846 186.238 12.846 C 187.554 10.566 188.247 7.979 188.247 5.346 C 188.238 -2.934 181.528 -9.644 173.247 -9.654 L 173.247 -9.654 Z" fill="#3f3d56">
    <animate attributeName="fill" values="rgb(7.8431% 0% 100% / 0.5765);#1400ff" begin="1.48s" dur="1.62s" fill="freeze" keyTimes="0; 1" repeatCount="indefinite"/>
  </path>
  <path d="M 440.247 232.346 C 427.161 232.346 418.981 218.18 425.525 206.846 C 432.068 195.513 448.426 195.513 454.97 206.846 C 456.462 209.431 457.247 212.362 457.247 215.346 C 457.237 224.731 449.632 232.336 440.247 232.346 Z M 440.247 200.346 C 428.7 200.346 421.483 212.846 427.257 222.846 C 433.03 232.846 447.464 232.846 453.238 222.846 C 454.554 220.566 455.247 217.979 455.247 215.346 C 455.238 207.066 448.528 200.356 440.247 200.346 Z" fill="#3f3d56">
    <animate attributeName="fill" values="rgb(7.8431% 0% 100% / 0.5294);#1400ff" begin="6.68s" dur="1.53s" fill="freeze" keyTimes="0; 1" repeatCount="indefinite"/>
  </path>
  <path d="M 173.247 349.346 C 160.161 349.346 151.981 335.18 158.525 323.846 C 165.068 312.513 181.426 312.513 187.97 323.846 C 189.462 326.431 190.247 329.362 190.247 332.346 C 190.237 341.731 182.632 349.336 173.247 349.346 Z M 173.247 317.346 C 161.7 317.346 154.483 329.846 160.257 339.846 C 166.03 349.846 180.464 349.846 186.238 339.846 C 187.554 337.566 188.247 334.979 188.247 332.346 C 188.238 324.066 181.528 317.356 173.247 317.346 Z" fill="#3f3d56">
    <animate attributeName="fill" values="rgb(7.8431% 0% 100% / 0.5294);#1400ff" begin="1.2s" dur="1.12s" fill="freeze" keyTimes="0; 1" repeatCount="indefinite"/>
  </path>
  <path d="M 371.247 222.346 C 358.161 222.346 349.981 208.18 356.525 196.846 C 363.068 185.513 379.426 185.513 385.97 196.846 C 387.462 199.431 388.247 202.362 388.247 205.346 C 388.237 214.731 380.632 222.336 371.247 222.346 Z M 371.247 190.346 C 359.7 190.346 352.483 202.846 358.257 212.846 C 364.03 222.846 378.464 222.846 384.238 212.846 C 385.554 210.566 386.247 207.979 386.247 205.346 C 386.238 197.066 379.528 190.356 371.247 190.346 Z" style="fill: rgb(53, 52, 68);">
    <animate attributeName="fill" values="#1300ff7a;rgb(7.8431% 0% 100%)" begin="1.2s" dur="1s" fill="freeze" keyTimes="0; 1" repeatCount="indefinite"/>
  </path>
  <path d="M -93.753 181.346 C -109.149 181.346 -118.772 198.013 -111.074 211.346 C -103.376 224.68 -84.131 224.68 -76.433 211.346 C -74.677 208.306 -73.753 204.857 -73.753 201.346 C -73.785 190.314 -82.721 181.379 -93.753 181.346 Z M -93.753 187.346 C -89.134 187.346 -86.248 192.346 -88.557 196.346 C -90.866 200.346 -96.64 200.346 -98.949 196.346 C -99.476 195.434 -99.753 194.4 -99.753 193.346 C -99.742 190.037 -97.062 187.357 -93.753 187.346 Z M -93.753 216.231 C -98.565 216.209 -103.056 213.813 -105.753 209.827 C -105.657 205.827 -97.753 203.625 -93.753 203.625 C -89.753 203.625 -81.849 205.827 -81.753 209.827 C -84.453 213.809 -88.942 216.205 -93.753 216.231 Z" fill="#3f3d56"/>
  <path d="M 352.247 -160.654 C 336.851 -160.654 327.228 -143.987 334.926 -130.654 C 342.624 -117.32 361.869 -117.32 369.567 -130.654 C 371.323 -133.694 372.247 -137.143 372.247 -140.654 C 372.215 -151.686 363.279 -160.621 352.247 -160.654 Z M 352.247 -154.654 C 356.866 -154.654 359.752 -149.654 357.443 -145.654 C 355.134 -141.654 349.36 -141.654 347.051 -145.654 C 346.524 -146.566 346.247 -147.6 346.247 -148.654 C 346.258 -151.963 348.938 -154.643 352.247 -154.654 Z M 352.247 -125.769 C 347.435 -125.791 342.944 -128.187 340.247 -132.173 C 340.343 -136.173 348.247 -138.375 352.247 -138.375 C 356.247 -138.375 364.151 -136.173 364.247 -132.173 C 361.547 -128.191 357.058 -125.795 352.247 -125.769 Z" fill="#3f3d56"/>
  <path d="M 582.247 58.346 C 566.851 58.346 557.228 75.013 564.926 88.346 C 572.624 101.68 591.869 101.68 599.567 88.346 C 601.323 85.306 602.247 81.857 602.247 78.346 C 602.215 67.314 593.279 58.379 582.247 58.346 Z M 582.247 64.346 C 586.866 64.346 589.752 69.346 587.443 73.346 C 585.134 77.346 579.36 77.346 577.051 73.346 C 576.524 72.434 576.247 71.4 576.247 70.346 C 576.258 67.037 578.938 64.357 582.247 64.346 Z M 582.247 93.231 C 577.435 93.209 572.944 90.813 570.247 86.827 C 570.343 82.827 578.247 80.625 582.247 80.625 C 586.247 80.625 594.151 82.827 594.247 86.827 C 591.547 90.809 587.058 93.205 582.247 93.231 Z" fill="#3f3d56"/>
  <path d="M 620.247 193.346 C 604.851 193.346 595.228 210.013 602.926 223.346 C 610.624 236.68 629.869 236.68 637.567 223.346 C 639.323 220.306 640.247 216.857 640.247 213.346 C 640.215 202.314 631.279 193.379 620.247 193.346 Z M 620.247 199.346 C 624.866 199.346 627.752 204.346 625.443 208.346 C 623.134 212.346 617.36 212.346 615.051 208.346 C 614.524 207.434 614.247 206.4 614.247 205.346 C 614.258 202.037 616.938 199.357 620.247 199.346 Z M 620.247 228.231 C 615.435 228.209 610.944 225.813 608.247 221.827 C 608.343 217.827 616.247 215.625 620.247 215.625 C 624.247 215.625 632.151 217.827 632.247 221.827 C 629.547 225.809 625.058 228.205 620.247 228.231 Z" fill="#3f3d56"/>
  <path d="M 204.42 222.959 L 193.85 235.564 C 193.62 235.837 193.343 236.056 193.034 236.205 C 192.725 236.355 192.391 236.431 192.055 236.431 L 141.952 236.431 C 141.713 236.431 141.479 236.354 141.279 236.208 C 141.079 236.062 140.922 235.855 140.827 235.61 C 140.731 235.367 140.703 235.098 140.743 234.836 C 140.783 234.573 140.892 234.33 141.055 234.136 L 151.632 221.53 C 151.861 221.257 152.138 221.04 152.446 220.89 C 152.754 220.74 153.086 220.664 153.423 220.664 L 203.523 220.664 C 203.761 220.664 203.996 220.74 204.195 220.886 C 204.395 221.032 204.552 221.24 204.648 221.483 C 204.742 221.728 204.772 221.997 204.731 222.259 C 204.691 222.521 204.582 222.764 204.42 222.959 Z M 193.85 197.574 C 193.62 197.301 193.343 197.083 193.034 196.933 C 192.725 196.784 192.391 196.707 192.055 196.707 L 141.952 196.707 C 141.713 196.707 141.479 196.785 141.279 196.931 C 141.079 197.076 140.922 197.285 140.827 197.528 C 140.731 197.772 140.703 198.042 140.743 198.303 C 140.783 198.565 140.892 198.808 141.055 199.002 L 151.632 211.608 C 151.861 211.881 152.138 212.099 152.446 212.248 C 152.754 212.398 153.086 212.475 153.423 212.476 L 203.523 212.476 C 203.761 212.476 203.996 212.398 204.195 212.252 C 204.395 212.106 204.552 211.898 204.648 211.655 C 204.742 211.411 204.772 211.141 204.731 210.88 C 204.691 210.618 204.582 210.374 204.42 210.18 L 193.85 197.574 Z M 141.952 188.52 L 192.055 188.52 C 192.391 188.52 192.725 188.444 193.034 188.293 C 193.343 188.145 193.62 187.927 193.85 187.653 L 204.42 175.047 C 204.582 174.853 204.691 174.61 204.731 174.348 C 204.772 174.085 204.742 173.816 204.648 173.573 C 204.552 173.328 204.395 173.121 204.195 172.975 C 203.996 172.829 203.761 172.752 203.523 172.752 L 153.423 172.752 C 153.086 172.753 152.754 172.83 152.446 172.979 C 152.138 173.128 151.861 173.346 151.632 173.62 L 141.058 186.224 C 140.895 186.419 140.787 186.661 140.746 186.923 C 140.706 187.185 140.733 187.454 140.829 187.699 C 140.924 187.941 141.081 188.149 141.28 188.295 C 141.48 188.442 141.713 188.519 141.952 188.52 Z" fill="url(#paint0_linear_174_4403)" style="opacity: 1;"/>
  <ellipse style="stroke: rgb(52, 65, 208); stroke-width: 3px; fill: rgba(216, 216, 216, 0);" cx="173.084" cy="205.227" rx="47.798" ry="47.798">
    <animate attributeName="stroke" values="rgb(0% 8.2353% 100% / 0.3333);#0015ff" begin="0.03s" dur="2s" fill="freeze" keyTimes="0; 1" repeatCount="indefinite"/>
  </ellipse>
  <circle cx="440.039" cy="326.375" r="16" fill="#6c63ff">
    <animate attributeName="fill" values="#5f4cf637;rgb(42.353% 38.824% 100%)" dur="1s" fill="freeze" keyTimes="0; 1" begin="4.21s" repeatCount="indefinite"/>
  </circle>
  <path d="M -24.702 -77.91 C -40.098 -77.91 -49.721 -61.243 -42.023 -47.91 C -34.325 -34.576 -15.08 -34.576 -7.382 -47.91 C -5.626 -50.95 -4.702 -54.399 -4.702 -57.91 C -4.734 -68.942 -13.67 -77.877 -24.702 -77.91 Z M -24.702 -71.91 C -20.083 -71.91 -17.197 -66.91 -19.506 -62.91 C -21.815 -58.91 -27.589 -58.91 -29.898 -62.91 C -30.425 -63.822 -30.702 -64.856 -30.702 -65.91 C -30.691 -69.219 -28.011 -71.899 -24.702 -71.91 Z M -24.702 -43.025 C -29.514 -43.047 -34.005 -45.443 -36.702 -49.429 C -36.606 -53.429 -28.702 -55.631 -24.702 -55.631 C -20.702 -55.631 -12.798 -53.429 -12.702 -49.429 C -15.402 -45.447 -19.891 -43.051 -24.702 -43.025 Z" fill="#3f3d56"/>
</svg>